<svg xmlns="http://www.w3.org/2000/svg" width="135" height="17" fill="none"><path fill="#000" fill-rule="evenodd" d="M4.8 9.12a24.44 24.44 0 0 1-.72-1.14 636.45 636.45 0 0 1-.6-.996l-.096.072v9.648H0V.24h3.144l5.184 7.632L9.048 9c.256.448.456.776.6.984l.072-.072V.24h3.384v16.464H9.96L4.8 9.12Zm25.896.528c0 1.504-.328 2.808-.984 3.912a6.532 6.532 0 0 1-2.652 2.52c-1.112.576-2.348.864-3.708.864-1.36 0-2.596-.288-3.708-.864a6.532 6.532 0 0 1-2.652-2.52c-.656-1.104-.984-2.408-.984-3.912V7.296c0-1.504.328-2.808.984-3.912a6.532 6.532 0 0 1 2.652-2.52C20.756.288 21.992 0 23.352 0c1.36 0 2.596.288 3.708.864a6.532 6.532 0 0 1 2.652 2.52c.656 1.104.984 2.408.984 3.912v2.352Zm-3.888-2.88c0-1.216-.32-2.156-.96-2.82-.64-.664-1.472-.996-2.496-.996s-1.856.332-2.496.996c-.64.664-.96 1.604-.96 2.82v3.408c0 1.216.32 2.156.96 2.82.64.664 1.472.996 2.496.996s1.856-.332 2.496-.996c.64-.664.96-1.604.96-2.82V6.768ZM33.576.24h7.584v2.952h-1.92v10.56h1.92v2.952h-7.584v-2.952h1.944V3.192h-1.944V.24Zm14.376 9.936c0 1.216.328 2.156.984 2.82.656.664 1.488.996 2.496.996 1.136 0 1.976-.308 2.52-.924.544-.616.816-1.564.816-2.844h3.384c0 1.408-.284 2.62-.852 3.636-.568 1.016-1.348 1.784-2.34 2.304-.992.52-2.112.78-3.36.78h-.336c-1.376 0-2.608-.28-3.696-.84-1.088-.56-1.944-1.388-2.568-2.484-.624-1.096-.936-2.42-.936-3.972V7.296c0-1.504.312-2.808.936-3.912.624-1.104 1.476-1.944 2.556-2.52C48.636.288 49.84 0 51.168 0h.336c1.28 0 2.42.252 3.42.756s1.788 1.264 2.364 2.28c.576 1.016.864 2.26.864 3.732h-3.528c0-1.248-.276-2.196-.828-2.844-.552-.648-1.348-.972-2.388-.972-1.008 0-1.836.332-2.484.996-.648.664-.972 1.604-.972 2.82v3.408Zm13.08 6.528V.24h11.592l-.408 2.952H64.68v3.6h7.032v2.952H64.68v4.008h7.608l.408 2.952H61.032Zm14.352 0V.24h3.72v13.392h6.768l.408 3.072H75.384Zm22.392-3.24h-6.552l-1.152 3.24h-3.576L92.472.24h4.416l5.976 16.464h-3.888l-1.2-3.24Zm-5.544-2.808h4.56A787.205 787.205 0 0 0 94.584 4.2h-.12l-2.232 6.456ZM109.44 9.12a24.44 24.44 0 0 1-.72-1.14 636.45 636.45 0 0 1-.6-.996l-.096.072v9.648h-3.384V.24h3.144l5.184 7.632.72 1.128c.256.448.456.776.6.984l.072-.072V.24h3.384v16.464H114.6l-5.16-7.584ZM127.464.24c1.36 0 2.596.288 3.708.864a6.532 6.532 0 0 1 2.652 2.52c.656 1.104.984 2.408.984 3.912v1.872c0 1.504-.328 2.808-.984 3.912a6.532 6.532 0 0 1-2.652 2.52c-1.112.576-2.348.864-3.708.864h-6.24V.24h6.24Zm-2.52 13.512h2.52c1.024 0 1.856-.332 2.496-.996.64-.664.96-1.604.96-2.82V7.008c0-1.216-.32-2.156-.96-2.82-.64-.664-1.472-.996-2.496-.996h-2.52v10.56Z" clip-rule="evenodd"/></svg>